<mxfile host="app.diagrams.net" modified="2022-03-17T13:51:36.421Z" agent="5.0 (Windows NT 10.0; Win64; x64) AppleWebKit/537.36 (KHTML, like Gecko) Chrome/99.0.4844.74 Safari/537.36" etag="AG3bh_X4THgLn40ZkALU" version="17.1.3" type="github">
  <diagram id="C5RBs43oDa-KdzZeNtuy" name="Page-1">
    <mxGraphModel dx="1695" dy="482" grid="1" gridSize="10" guides="1" tooltips="1" connect="1" arrows="1" fold="1" page="1" pageScale="1" pageWidth="827" pageHeight="1169" math="0" shadow="0">
      <root>
        <mxCell id="WIyWlLk6GJQsqaUBKTNV-0" />
        <mxCell id="WIyWlLk6GJQsqaUBKTNV-1" parent="WIyWlLk6GJQsqaUBKTNV-0" />
        <mxCell id="zoSKN2tOhOm3KNpEtnX8-1" value="FIM" style="whiteSpace=wrap;html=1;rounded=1;" vertex="1" parent="WIyWlLk6GJQsqaUBKTNV-1">
          <mxGeometry x="190" y="30" width="120" height="60" as="geometry" />
        </mxCell>
        <mxCell id="zoSKN2tOhOm3KNpEtnX8-4" value="INICIO&lt;br&gt;" style="rounded=1;whiteSpace=wrap;html=1;" vertex="1" parent="WIyWlLk6GJQsqaUBKTNV-1">
          <mxGeometry x="40" y="30" width="120" height="60" as="geometry" />
        </mxCell>
        <mxCell id="zoSKN2tOhOm3KNpEtnX8-5" value="ENTRADA" style="shape=parallelogram;perimeter=parallelogramPerimeter;whiteSpace=wrap;html=1;fixedSize=1;" vertex="1" parent="WIyWlLk6GJQsqaUBKTNV-1">
          <mxGeometry x="40" y="130" width="120" height="60" as="geometry" />
        </mxCell>
        <mxCell id="zoSKN2tOhOm3KNpEtnX8-18" value="" style="edgeStyle=orthogonalEdgeStyle;rounded=0;orthogonalLoop=1;jettySize=auto;html=1;exitX=0.5;exitY=0.875;exitDx=0;exitDy=0;exitPerimeter=0;" edge="1" parent="WIyWlLk6GJQsqaUBKTNV-1" source="zoSKN2tOhOm3KNpEtnX8-6" target="zoSKN2tOhOm3KNpEtnX8-17">
          <mxGeometry relative="1" as="geometry" />
        </mxCell>
        <mxCell id="zoSKN2tOhOm3KNpEtnX8-6" value="C" style="shape=document;whiteSpace=wrap;html=1;boundedLbl=1;" vertex="1" parent="WIyWlLk6GJQsqaUBKTNV-1">
          <mxGeometry x="430" y="320" width="120" height="80" as="geometry" />
        </mxCell>
        <mxCell id="zoSKN2tOhOm3KNpEtnX8-16" value="" style="edgeStyle=orthogonalEdgeStyle;rounded=0;orthogonalLoop=1;jettySize=auto;html=1;exitX=0.5;exitY=1;exitDx=0;exitDy=0;" edge="1" parent="WIyWlLk6GJQsqaUBKTNV-1" source="zoSKN2tOhOm3KNpEtnX8-8" target="zoSKN2tOhOm3KNpEtnX8-6">
          <mxGeometry relative="1" as="geometry">
            <mxPoint x="490" y="290" as="sourcePoint" />
          </mxGeometry>
        </mxCell>
        <mxCell id="zoSKN2tOhOm3KNpEtnX8-8" value="C=A+B" style="rounded=0;whiteSpace=wrap;html=1;" vertex="1" parent="WIyWlLk6GJQsqaUBKTNV-1">
          <mxGeometry x="430" y="220" width="120" height="60" as="geometry" />
        </mxCell>
        <mxCell id="zoSKN2tOhOm3KNpEtnX8-13" value="" style="edgeStyle=orthogonalEdgeStyle;rounded=0;orthogonalLoop=1;jettySize=auto;html=1;" edge="1" parent="WIyWlLk6GJQsqaUBKTNV-1" source="zoSKN2tOhOm3KNpEtnX8-11">
          <mxGeometry relative="1" as="geometry">
            <mxPoint x="490" y="120" as="targetPoint" />
          </mxGeometry>
        </mxCell>
        <mxCell id="zoSKN2tOhOm3KNpEtnX8-11" value="INICIO" style="rounded=1;whiteSpace=wrap;html=1;" vertex="1" parent="WIyWlLk6GJQsqaUBKTNV-1">
          <mxGeometry x="430" y="30" width="120" height="60" as="geometry" />
        </mxCell>
        <mxCell id="zoSKN2tOhOm3KNpEtnX8-15" value="" style="edgeStyle=orthogonalEdgeStyle;rounded=0;orthogonalLoop=1;jettySize=auto;html=1;entryX=0.5;entryY=0;entryDx=0;entryDy=0;" edge="1" parent="WIyWlLk6GJQsqaUBKTNV-1" source="zoSKN2tOhOm3KNpEtnX8-14" target="zoSKN2tOhOm3KNpEtnX8-8">
          <mxGeometry relative="1" as="geometry">
            <mxPoint x="490" y="210" as="targetPoint" />
          </mxGeometry>
        </mxCell>
        <mxCell id="zoSKN2tOhOm3KNpEtnX8-14" value="A+B" style="shape=parallelogram;perimeter=parallelogramPerimeter;whiteSpace=wrap;html=1;fixedSize=1;" vertex="1" parent="WIyWlLk6GJQsqaUBKTNV-1">
          <mxGeometry x="430" y="120" width="120" height="60" as="geometry" />
        </mxCell>
        <mxCell id="zoSKN2tOhOm3KNpEtnX8-17" value="FIM" style="whiteSpace=wrap;html=1;rounded=1;" vertex="1" parent="WIyWlLk6GJQsqaUBKTNV-1">
          <mxGeometry x="430" y="430" width="120" height="60" as="geometry" />
        </mxCell>
        <mxCell id="zoSKN2tOhOm3KNpEtnX8-45" value="FALSO" style="edgeStyle=orthogonalEdgeStyle;rounded=0;orthogonalLoop=1;jettySize=auto;html=1;" edge="1" parent="WIyWlLk6GJQsqaUBKTNV-1" source="zoSKN2tOhOm3KNpEtnX8-19" target="zoSKN2tOhOm3KNpEtnX8-44">
          <mxGeometry relative="1" as="geometry" />
        </mxCell>
        <mxCell id="zoSKN2tOhOm3KNpEtnX8-53" value="VERDADEIRO" style="edgeStyle=orthogonalEdgeStyle;rounded=0;orthogonalLoop=1;jettySize=auto;html=1;" edge="1" parent="WIyWlLk6GJQsqaUBKTNV-1" source="zoSKN2tOhOm3KNpEtnX8-19" target="zoSKN2tOhOm3KNpEtnX8-37">
          <mxGeometry relative="1" as="geometry" />
        </mxCell>
        <mxCell id="zoSKN2tOhOm3KNpEtnX8-19" value="A&amp;gt;B" style="rhombus;whiteSpace=wrap;html=1;" vertex="1" parent="WIyWlLk6GJQsqaUBKTNV-1">
          <mxGeometry x="140" y="830" width="80" height="80" as="geometry" />
        </mxCell>
        <mxCell id="zoSKN2tOhOm3KNpEtnX8-20" value="SAIDA" style="shape=document;whiteSpace=wrap;html=1;boundedLbl=1;" vertex="1" parent="WIyWlLk6GJQsqaUBKTNV-1">
          <mxGeometry x="40" y="230" width="120" height="80" as="geometry" />
        </mxCell>
        <mxCell id="zoSKN2tOhOm3KNpEtnX8-21" value="PROCESSAMENTO" style="rounded=0;whiteSpace=wrap;html=1;" vertex="1" parent="WIyWlLk6GJQsqaUBKTNV-1">
          <mxGeometry x="190" y="240" width="120" height="60" as="geometry" />
        </mxCell>
        <mxCell id="zoSKN2tOhOm3KNpEtnX8-24" value="" style="edgeStyle=orthogonalEdgeStyle;rounded=0;orthogonalLoop=1;jettySize=auto;html=1;" edge="1" parent="WIyWlLk6GJQsqaUBKTNV-1" source="zoSKN2tOhOm3KNpEtnX8-22" target="zoSKN2tOhOm3KNpEtnX8-23">
          <mxGeometry relative="1" as="geometry" />
        </mxCell>
        <mxCell id="zoSKN2tOhOm3KNpEtnX8-22" value="INICIO&lt;br&gt;" style="rounded=1;whiteSpace=wrap;html=1;" vertex="1" parent="WIyWlLk6GJQsqaUBKTNV-1">
          <mxGeometry x="120" y="460" width="120" height="60" as="geometry" />
        </mxCell>
        <mxCell id="zoSKN2tOhOm3KNpEtnX8-51" value="" style="edgeStyle=orthogonalEdgeStyle;rounded=0;orthogonalLoop=1;jettySize=auto;html=1;" edge="1" parent="WIyWlLk6GJQsqaUBKTNV-1" source="zoSKN2tOhOm3KNpEtnX8-23">
          <mxGeometry relative="1" as="geometry">
            <mxPoint x="180" y="590" as="targetPoint" />
          </mxGeometry>
        </mxCell>
        <mxCell id="zoSKN2tOhOm3KNpEtnX8-56" value="" style="edgeStyle=orthogonalEdgeStyle;rounded=0;orthogonalLoop=1;jettySize=auto;html=1;" edge="1" parent="WIyWlLk6GJQsqaUBKTNV-1" source="zoSKN2tOhOm3KNpEtnX8-23" target="zoSKN2tOhOm3KNpEtnX8-55">
          <mxGeometry relative="1" as="geometry" />
        </mxCell>
        <mxCell id="zoSKN2tOhOm3KNpEtnX8-23" value="A,B" style="shape=parallelogram;perimeter=parallelogramPerimeter;whiteSpace=wrap;html=1;fixedSize=1;" vertex="1" parent="WIyWlLk6GJQsqaUBKTNV-1">
          <mxGeometry x="120" y="580" width="120" height="60" as="geometry" />
        </mxCell>
        <mxCell id="zoSKN2tOhOm3KNpEtnX8-26" value="DECISÃƒO" style="rhombus;whiteSpace=wrap;html=1;" vertex="1" parent="WIyWlLk6GJQsqaUBKTNV-1">
          <mxGeometry x="210" y="120" width="80" height="80" as="geometry" />
        </mxCell>
        <mxCell id="zoSKN2tOhOm3KNpEtnX8-36" value="SAIDA" style="shape=document;whiteSpace=wrap;html=1;boundedLbl=1;" vertex="1" parent="WIyWlLk6GJQsqaUBKTNV-1">
          <mxGeometry x="40" y="230" width="120" height="80" as="geometry" />
        </mxCell>
        <mxCell id="zoSKN2tOhOm3KNpEtnX8-43" value="" style="edgeStyle=orthogonalEdgeStyle;rounded=0;orthogonalLoop=1;jettySize=auto;html=1;" edge="1" parent="WIyWlLk6GJQsqaUBKTNV-1" source="zoSKN2tOhOm3KNpEtnX8-37" target="zoSKN2tOhOm3KNpEtnX8-39">
          <mxGeometry relative="1" as="geometry">
            <Array as="points">
              <mxPoint x="440" y="1070" />
            </Array>
          </mxGeometry>
        </mxCell>
        <mxCell id="zoSKN2tOhOm3KNpEtnX8-37" value="A" style="shape=document;whiteSpace=wrap;html=1;boundedLbl=1;" vertex="1" parent="WIyWlLk6GJQsqaUBKTNV-1">
          <mxGeometry x="320" y="830" width="120" height="80" as="geometry" />
        </mxCell>
        <mxCell id="zoSKN2tOhOm3KNpEtnX8-39" value="FIM" style="whiteSpace=wrap;html=1;rounded=1;" vertex="1" parent="WIyWlLk6GJQsqaUBKTNV-1">
          <mxGeometry x="120" y="1040" width="120" height="60" as="geometry" />
        </mxCell>
        <mxCell id="zoSKN2tOhOm3KNpEtnX8-48" value="" style="edgeStyle=orthogonalEdgeStyle;rounded=0;orthogonalLoop=1;jettySize=auto;html=1;" edge="1" parent="WIyWlLk6GJQsqaUBKTNV-1" source="zoSKN2tOhOm3KNpEtnX8-44" target="zoSKN2tOhOm3KNpEtnX8-39">
          <mxGeometry relative="1" as="geometry">
            <Array as="points">
              <mxPoint x="-20" y="870" />
              <mxPoint x="-90" y="870" />
              <mxPoint x="-90" y="1070" />
            </Array>
          </mxGeometry>
        </mxCell>
        <mxCell id="zoSKN2tOhOm3KNpEtnX8-44" value="B" style="shape=document;whiteSpace=wrap;html=1;boundedLbl=1;" vertex="1" parent="WIyWlLk6GJQsqaUBKTNV-1">
          <mxGeometry x="-80" y="830" width="120" height="80" as="geometry" />
        </mxCell>
        <mxCell id="zoSKN2tOhOm3KNpEtnX8-54" value="A=10&lt;br&gt;B=5&lt;br&gt;" style="text;html=1;strokeColor=none;fillColor=none;align=center;verticalAlign=middle;whiteSpace=wrap;rounded=0;" vertex="1" parent="WIyWlLk6GJQsqaUBKTNV-1">
          <mxGeometry x="240" y="595" width="60" height="30" as="geometry" />
        </mxCell>
        <mxCell id="zoSKN2tOhOm3KNpEtnX8-57" value="" style="edgeStyle=orthogonalEdgeStyle;rounded=0;orthogonalLoop=1;jettySize=auto;html=1;" edge="1" parent="WIyWlLk6GJQsqaUBKTNV-1" source="zoSKN2tOhOm3KNpEtnX8-55" target="zoSKN2tOhOm3KNpEtnX8-19">
          <mxGeometry relative="1" as="geometry" />
        </mxCell>
        <mxCell id="zoSKN2tOhOm3KNpEtnX8-59" value="" style="edgeStyle=orthogonalEdgeStyle;rounded=0;orthogonalLoop=1;jettySize=auto;html=1;" edge="1" parent="WIyWlLk6GJQsqaUBKTNV-1" source="zoSKN2tOhOm3KNpEtnX8-55" target="zoSKN2tOhOm3KNpEtnX8-58">
          <mxGeometry relative="1" as="geometry" />
        </mxCell>
        <mxCell id="zoSKN2tOhOm3KNpEtnX8-55" value="A=B" style="rhombus;whiteSpace=wrap;html=1;" vertex="1" parent="WIyWlLk6GJQsqaUBKTNV-1">
          <mxGeometry x="140" y="690" width="80" height="80" as="geometry" />
        </mxCell>
        <mxCell id="zoSKN2tOhOm3KNpEtnX8-60" style="edgeStyle=orthogonalEdgeStyle;rounded=0;orthogonalLoop=1;jettySize=auto;html=1;entryX=0.558;entryY=1.017;entryDx=0;entryDy=0;entryPerimeter=0;" edge="1" parent="WIyWlLk6GJQsqaUBKTNV-1" source="zoSKN2tOhOm3KNpEtnX8-58" target="zoSKN2tOhOm3KNpEtnX8-39">
          <mxGeometry relative="1" as="geometry">
            <Array as="points">
              <mxPoint x="560" y="1120" />
              <mxPoint x="187" y="1120" />
            </Array>
          </mxGeometry>
        </mxCell>
        <mxCell id="zoSKN2tOhOm3KNpEtnX8-58" value="SÃƒO IGUAIS&amp;nbsp;" style="shape=document;whiteSpace=wrap;html=1;boundedLbl=1;" vertex="1" parent="WIyWlLk6GJQsqaUBKTNV-1">
          <mxGeometry x="490" y="690" width="120" height="80" as="geometry" />
        </mxCell>
      </root>
    </mxGraphModel>
  </diagram>
</mxfile>
